<svg width="77" height="57" viewBox="0 0 77 57" fill="none" xmlns="http://www.w3.org/2000/svg">
<g clip-path="url(#clip0_674_1260)">
<path d="M60.6168 0.869648C53.6958 1.0393 54.4318 15.5677 54.4318 15.5677C54.4318 15.5677 56.9354 6.39223 62.3544 7.16459C67.5201 7.90033 69.1283 14.0542 69.541 18.6267C69.9537 23.1993 67.8123 33.256 58.5259 31.2755C49.3369 29.3165 66.4565 38.6509 70.2477 34.4534C75.0477 29.1379 75.8288 22.9841 75.0477 16.2802C74.0948 8.10034 69.828 0.503559 60.6168 0.869648Z" fill="#8ED8F8"/>
<path d="M15.3466 0.869587C22.2676 1.03924 21.5316 15.5676 21.5316 15.5676C21.5316 15.5676 19.028 6.39217 13.609 7.16453C8.44421 7.90027 6.83507 14.0541 6.42327 18.6267C6.01058 23.1992 8.15285 33.2559 17.4384 31.2755C26.6274 29.3165 9.50782 38.6508 5.71656 34.4533C0.915709 29.1388 0.134607 22.9849 0.915708 16.281C1.86862 8.10118 6.13545 0.504391 15.3466 0.869587Z" fill="#8ED8F8"/>
<path d="M38.5237 0.0974031C45.4438 0.267054 49.1049 10.6479 49.1049 10.6479C49.1049 10.6479 41.3089 -1.85983 34.3047 12.9453C27.2996 27.7505 25.2742 39.4832 14.4716 39.3984C7.65337 39.1251 4.38196 32.8463 4.38196 32.8463C4.38196 32.8463 7.184 35.8178 12.4463 34.7187C24.2611 32.2507 23.5012 -0.499053 38.5237 0.0974031Z" fill="#53B7E8"/>
<path d="M37.4008 0.0974031C30.4807 0.267054 26.4999 10.6479 26.4999 10.6479C26.4999 10.6479 34.6164 -1.85983 41.6207 12.9453C48.6249 27.7505 50.652 39.4832 61.4528 39.3984C68.272 39.1251 71.5416 32.8463 71.5416 32.8463C71.5416 32.8463 68.7413 35.8178 63.4764 34.7187C51.6643 32.2507 52.4241 -0.499053 37.4008 0.0974031Z" fill="white"/>
<path d="M34.3038 26.5433C27.2987 11.7373 25.2742 0.00547542 14.4716 0.0903008C7.66223 0.363528 4.03835 6.62454 4.02861 6.64061C4.02772 6.6415 4.02683 6.6424 4.02595 6.64329C-5.38712 20.3484 3.13769 39.3082 14.8746 39.4716C16.3225 39.4368 18.0025 38.9359 18.7509 38.6877C16.838 39.2868 8.36274 41.1788 2.80028 29.9096C-1.99083 19.3867 1.827 2.91633 13.114 4.95035C24.2363 8.49159 23.7908 39.9752 38.5237 39.3913C45.4438 39.2216 49.1049 28.8417 49.1049 28.8417C49.1049 28.8417 41.3089 41.3494 34.3047 26.5442" fill="white"/>
<path d="M18.7509 38.6883C19.0059 38.6088 19.1449 38.5508 19.1449 38.5508C19.1449 38.5508 18.9988 38.6052 18.7509 38.6883Z" fill="#231F20"/>
<path d="M41.6596 26.5433C48.6647 11.7373 50.6892 0.00547544 61.4927 0.0903008C68.3012 0.363528 71.9251 6.62454 71.9348 6.6415C71.9348 6.64239 71.9375 6.64329 71.9375 6.64418C81.3514 20.3493 72.8257 39.3091 61.0888 39.4725C59.6409 39.4377 57.9609 38.9368 57.2126 38.6885C59.1255 39.2877 67.6007 41.1797 73.1631 29.9105C77.9543 19.3867 74.1364 2.91633 62.8494 4.95035C51.7271 8.49159 52.1717 39.9752 37.4397 39.3913C30.5187 39.2216 26.5964 28.9247 26.5964 28.9247C26.5964 28.9247 34.6545 41.3485 41.6596 26.5433Z" fill="#53B7E8"/>
<path d="M57.2126 38.6883C56.9584 38.6088 56.8185 38.5508 56.8185 38.5508C56.8185 38.5508 56.9637 38.6052 57.2126 38.6883Z" fill="#231F20"/>
<path d="M3.06506 10.1344C6.26563 4.32701 12.4436 2.15548 17.5252 8.00575C18.4923 9.1192 19.1742 10.4059 19.8649 11.7041C22.62 16.8812 23.7775 22.877 26.561 27.9433C27.2588 29.2139 28.0807 30.4291 29.1248 31.4176C29.6455 31.9104 30.2194 32.3453 30.8411 32.6926C32.6336 33.6936 34.9343 34.0123 36.7746 32.9167C45.2029 27.9022 46.3028 -0.0249844 61.0029 1.67758e-05C62.9672 0.00358837 64.8544 0.58308 66.561 1.55366C64.8473 0.618796 62.9583 0.0741274 61.0038 0.105379C46.9289 0.332175 46.0628 28.121 37.1103 33.3328C34.4508 34.8811 30.842 33.8061 28.7528 31.8203C24.3027 27.5879 22.6138 17.5133 19.64 11.8238C18.9652 10.5327 18.1876 9.29063 17.2453 8.18522C12.2789 2.35638 6.69161 4.79667 3.06418 10.1344" fill="#FAA73F"/>
<path d="M49.1819 45.9012H50.2535V55.6731H54.376V56.7285H49.1819V45.9012ZM42.415 48.1728L40.5774 52.114H44.2456L42.415 48.1728ZM42.5488 45.9012L47.5347 56.7285H46.3861L44.7167 53.1694H40.0859L38.4263 56.7285H37.236L42.2813 45.9012H42.5488ZM28.125 55.7035H29.3577C30.8314 55.7035 31.8507 55.6106 32.421 55.4249C33.2225 55.1579 33.8548 54.6838 34.3135 53.9945C34.7723 53.3034 35.0008 52.4614 35.0008 51.4658C35.0008 50.4702 34.7528 49.5282 34.2542 48.7889C33.7583 48.0478 33.064 47.5397 32.1757 47.2656C31.5088 47.0593 30.4098 46.9566 28.8795 46.9566H28.125V55.7035ZM27.0977 56.7285V45.9012H29.3152C30.9128 45.9012 32.0739 46.0316 32.7956 46.2905C33.8327 46.6602 34.6439 47.296 35.2266 48.2058C35.8093 49.113 36.1025 50.1943 36.1025 51.4506C36.1025 52.5364 35.8713 53.4891 35.4082 54.3132C34.9468 55.1374 34.3437 55.7481 33.6068 56.1401C32.8674 56.5321 31.8312 56.7285 30.4993 56.7285H27.0985H27.0977ZM19.3035 46.6852C18.5144 46.6852 17.7661 46.8941 17.0558 47.3111C16.3491 47.7281 15.7956 48.2889 15.3962 48.9951C14.9994 49.7041 14.8011 50.4907 14.8011 51.3604C14.8011 52.6444 15.2403 53.7302 16.1206 54.615C17.0009 55.5017 18.0627 55.9446 19.3026 55.9446C20.1333 55.9446 20.9002 55.741 21.6043 55.3338C22.311 54.9267 22.8618 54.3686 23.2559 53.6623C23.65 52.956 23.8484 52.1721 23.8484 51.3077C23.8484 50.4434 23.65 49.672 23.2559 48.9782C22.8618 48.2844 22.303 47.729 21.5866 47.312C20.8701 46.895 20.1085 46.6861 19.3017 46.6861L19.3035 46.6852ZM19.2565 45.6298C20.8736 45.6298 22.2286 46.178 23.317 47.2709C24.4063 48.3647 24.9518 49.7112 24.9518 51.3095C24.9518 52.9078 24.4081 54.24 23.3223 55.3437C22.233 56.4473 20.9091 57 19.3433 57C17.7776 57 16.4235 56.45 15.3351 55.3508C14.2458 54.2525 13.7003 52.923 13.7003 51.3622C13.7003 50.322 13.9482 49.3585 14.4442 48.4692C14.9401 47.5826 15.6176 46.8861 16.4757 46.3834C17.3312 45.8807 18.2593 45.6289 19.2565 45.6289V45.6298ZM0.0230255 56.7285L1.50375 45.9012H1.72427L6.07257 54.7838L10.3934 45.9012H10.5546L12.0929 56.7285H11.0585L9.98694 48.9773L6.20187 56.7285H5.92114L2.09888 48.9175L1.07424 56.7285H0.0230255Z" fill="white"/>
<path d="M70.1645 46.9568V50.6364L72.0101 50.6516C72.7266 50.6516 73.2553 50.5838 73.5971 50.4454C73.9389 50.307 74.2073 50.0882 74.4012 49.7864C74.5925 49.4846 74.689 49.148 74.689 48.7739C74.689 48.3997 74.5925 48.0801 74.3959 47.7836C74.2029 47.4872 73.9469 47.2756 73.6299 47.1479C73.3146 47.0193 72.7894 46.9568 72.0544 46.9568H70.1645ZM69.0929 45.9014H71.2263C72.4148 45.9014 73.2207 45.9523 73.6423 46.0496C74.2799 46.1952 74.7953 46.5095 75.193 46.9943C75.5924 47.4765 75.7907 48.0729 75.7907 48.7783C75.7907 49.3667 75.6544 49.8846 75.3789 50.3293C75.1062 50.7766 74.7138 51.1133 74.2029 51.3418C73.6945 51.5704 72.9896 51.6865 72.0916 51.691L75.9386 56.7278H74.6262L70.7791 51.691H70.1636V56.7278H69.092V45.9005L69.0929 45.9014ZM66.3839 47.7158L65.5549 48.5096C64.9572 47.9167 64.3027 47.4667 63.5907 47.1595C62.8787 46.8532 62.1843 46.6997 61.5069 46.6997C60.6664 46.6997 59.8649 46.9086 59.106 47.3256C58.3444 47.7426 57.7546 48.3078 57.3374 49.0248C56.9186 49.7382 56.7095 50.4927 56.7095 51.2892C56.7095 52.0856 56.9256 52.8776 57.3569 53.6143C57.7891 54.3482 58.386 54.9233 59.1476 55.3438C59.9119 55.7635 60.7452 55.9751 61.653 55.9751C62.7547 55.9751 63.6872 55.6608 64.4479 55.0349C65.2096 54.4089 65.6612 53.5946 65.8029 52.5973H62.3942V51.5418H67.0082C66.9985 53.2134 66.507 54.5429 65.5346 55.5251C64.5595 56.5082 63.2595 57.0001 61.6282 57.0001C59.6489 57.0001 58.0813 56.3189 56.9248 54.9545C56.0365 53.9045 55.5928 52.6901 55.5928 51.3106C55.5928 50.2873 55.8479 49.3328 56.3562 48.448C56.8672 47.5658 57.5668 46.8747 58.4551 46.3773C59.346 45.88 60.3503 45.6309 61.4714 45.6309C62.3792 45.6309 63.2356 45.7969 64.0361 46.1264C64.8376 46.4586 65.6214 46.9863 66.383 47.7176L66.3839 47.7158Z" fill="#F58220"/>
<path d="M78.0366 55.2498H78.3466C78.4236 55.2498 78.4883 55.2444 78.5405 55.2328C78.591 55.2221 78.63 55.2051 78.6565 55.1837C78.6831 55.1623 78.7026 55.1364 78.7159 55.1078V55.106C78.7292 55.0784 78.7362 55.0462 78.7362 55.0114C78.7362 54.9882 78.7327 54.9667 78.7265 54.9462C78.7203 54.9257 78.7106 54.906 78.6982 54.8882C78.6858 54.8694 78.6698 54.8533 78.653 54.84C78.6344 54.8257 78.614 54.8149 78.5928 54.806C78.5697 54.7971 78.5361 54.7899 78.4918 54.7855C78.4475 54.781 78.3926 54.7783 78.3271 54.7783H78.0375V55.2498H78.0366ZM77.7329 56.2141V54.5319C77.7329 54.5221 77.7408 54.5149 77.7497 54.5149H78.3235C78.5219 54.5149 78.6663 54.531 78.7557 54.5623C78.8018 54.5783 78.8425 54.6007 78.8788 54.6283C78.9151 54.656 78.947 54.6908 78.9745 54.731C79.001 54.7712 79.0214 54.8123 79.0347 54.8551C79.048 54.898 79.0551 54.9417 79.0551 54.9873C79.0551 55.0507 79.0435 55.1105 79.0205 55.1668C78.9984 55.2221 78.9638 55.273 78.9187 55.3203C78.8735 55.3677 78.8213 55.4043 78.761 55.431C78.7176 55.4498 78.6707 55.4641 78.6193 55.4721L78.6477 55.4891C78.6725 55.5043 78.6937 55.5212 78.7123 55.5391C78.746 55.5721 78.7849 55.6177 78.8266 55.6739C78.8673 55.7284 78.9125 55.7962 78.9621 55.8757L79.1658 56.2052C79.1711 56.2132 79.1684 56.2239 79.1604 56.2284L79.1516 56.2311H78.8248C78.8186 56.2311 78.8124 56.2275 78.8097 56.2222L78.661 55.9579C78.6034 55.8543 78.5503 55.7695 78.5042 55.7052C78.4582 55.6409 78.4174 55.5962 78.3829 55.5712H78.382C78.3599 55.5525 78.3315 55.5391 78.2979 55.5311C78.2642 55.5221 78.2235 55.5177 78.1774 55.5177H78.0357V56.2141C78.0357 56.2239 78.0278 56.2311 78.0189 56.2311H77.7497C77.7408 56.2311 77.7329 56.2231 77.7329 56.2141ZM78.4316 54.0613C78.3235 54.0613 78.2173 54.0756 78.1128 54.1033C78.0083 54.131 77.9047 54.173 77.8019 54.2292C77.7001 54.2846 77.6098 54.3524 77.53 54.431C77.4503 54.5105 77.3813 54.6024 77.3246 54.7051C77.267 54.8087 77.2236 54.915 77.1953 55.0221C77.167 55.1292 77.1519 55.2391 77.1519 55.3507C77.1519 55.4623 77.1661 55.5712 77.1944 55.6775C77.2227 55.7837 77.2653 55.8891 77.3219 55.9909C77.3777 56.0927 77.4468 56.1838 77.5256 56.2632C77.6044 56.3427 77.6948 56.4115 77.7957 56.4677C77.8967 56.5248 78.0012 56.5677 78.1075 56.5963C78.2128 56.6249 78.3218 56.6391 78.4325 56.6391C78.5432 56.6391 78.6512 56.6249 78.7566 56.5963C78.862 56.5677 78.9665 56.5248 79.0683 56.4677C79.1693 56.4115 79.2596 56.3427 79.3384 56.2623H79.3402C79.4182 56.182 79.4855 56.0918 79.5412 55.99C79.597 55.8873 79.6396 55.7829 79.6679 55.6766C79.6953 55.5703 79.7095 55.4614 79.7095 55.3498C79.7095 55.2382 79.6953 55.1284 79.667 55.0212C79.6387 54.9132 79.5953 54.8069 79.5377 54.7033C79.481 54.6007 79.412 54.5087 79.3322 54.4292C79.2525 54.3498 79.1622 54.2828 79.0595 54.2274C78.9568 54.1721 78.8531 54.1292 78.7486 54.1015C78.6441 54.0738 78.5388 54.0596 78.4316 54.0596V54.0613ZM78.4316 53.7676C78.5627 53.7676 78.6928 53.7845 78.8221 53.8185C78.9506 53.8524 79.0781 53.9042 79.203 53.9721C79.3278 54.0399 79.4403 54.123 79.5377 54.2203C79.6351 54.3176 79.7201 54.4301 79.7892 54.5569C79.8592 54.6837 79.9114 54.8132 79.9469 54.9462C79.9823 55.0784 79.9991 55.2132 79.9991 55.3507C79.9991 55.4882 79.9814 55.6203 79.9469 55.7525C79.9123 55.8838 79.8601 56.0123 79.7919 56.1373C79.7237 56.2632 79.6404 56.3748 79.5439 56.4731C79.4474 56.5704 79.3367 56.6552 79.2118 56.724H79.21C79.0861 56.7936 78.9594 56.8454 78.8301 56.8802C78.6999 56.9151 78.5662 56.9329 78.4316 56.9329C78.297 56.9329 78.1633 56.9151 78.0322 56.8802C77.902 56.8454 77.7745 56.7927 77.6505 56.724C77.5256 56.6543 77.4149 56.5704 77.3184 56.4731L77.3166 56.4713C77.2201 56.374 77.1377 56.2623 77.0686 56.1373C76.9996 56.0123 76.9473 55.8838 76.9128 55.7525C76.8782 55.6212 76.8605 55.4873 76.8605 55.3516C76.8605 55.0775 76.9305 54.8123 77.0713 54.5587C77.1422 54.4319 77.2263 54.3194 77.3246 54.2221C77.422 54.1247 77.5345 54.0417 77.6593 53.9738C77.7842 53.906 77.9117 53.8542 78.0402 53.8203C78.1686 53.7863 78.2996 53.7694 78.4307 53.7694L78.4316 53.7676Z" fill="#F58220"/>
</g>
<defs>
<clipPath id="clip0_674_1260">
<rect width="80" height="57" fill="white"/>
</clipPath>
</defs>
</svg>
